# xmcd
#
# Track frame offsets:
#	150
#	16235
#	33679
#	50274
#	70121
#	87531
#	105284
#	126795
#	140197
#	154728
#	170841
#	189000
#	202650
#	221348
#
# Disc length: 3479 seconds
#
# Revision: 1
# Processed by: cddbd v1.5.2PL0 Copyright (c) Steve Scherf et al.
# Submitted via: audiograbber 1.83.01
#
DISCID=ba0d950e
DTITLE=Local Lads - Being Country
DYEAR=2010
DGENRE=Country
TTITLE0=Being Country 
TTITLE1=Ride Him Cowboy 
TTITLE2=Road To Tamworth 
TTITLE3=Road Train 
TTITLE4=Boy From Broken Hill 
TTITLE5=Holes In My Jeans 
TTITLE6=Boundary Rider 
TTITLE7=Down Tamworth Way 
TTITLE8=Old Felt Hat 
TTITLE9=Red Clay and Saltbush 
TTITLE10=This Country Called Home 
TTITLE11=Australia 
TTITLE12=Fireball From Hell 
TTITLE13=Rain From Nowhere 
EXTD=
EXTT0=
EXTT1=
EXTT2=
EXTT3=
EXTT4=
EXTT5=
EXTT6=
EXTT7=
EXTT8=
EXTT9=
EXTT10=
EXTT11=
EXTT12=
EXTT13=
PLAYORDER=
